<?xml version="1.0" encoding="UTF-8" standalone="no"?>
<svg width="156px" height="86px" viewBox="0 0 156 86" version="1.1" xmlns="http://www.w3.org/2000/svg" xmlns:xlink="http://www.w3.org/1999/xlink" xmlns:sketch="http://www.bohemiancoding.com/sketch/ns">
    <title>upload</title>
    <desc>Created with Sketch.</desc>
    <defs></defs>
    <g id="Page-1" stroke="none" stroke-width="1" fill="none" fill-rule="evenodd" sketch:type="MSPage">
        <g id="upload" sketch:type="MSLayerGroup" transform="translate(0.000000, 1.000000)" fill="#FFFFFF">
            <g id="Shape">
                <path d="M141.537759,42.74786 C142.076532,40.443 142.36181,38.0579 142.36181,35.615 C142.36181,15.8661 123.884241,-0.14382 101.091,-0.14382 C84.1881519,-0.14382 69.6664177,8.66558 63.2859114,21.27074 C58.3832025,18.50348 52.5414684,16.88066 46.2543544,16.88066 C29.7242911,16.88066 16.2251646,28.00342 15.098962,42.07772 C6.19607595,45.61746 0,53.38952 0,62.43284 C0,74.80748 11.5783038,84.83952 25.8602785,84.83952 L63.2148861,84.83952 C65.0462405,84.83952 65.1353165,83.07866 65.1353165,83.07866 L65.1353165,68.70346 C65.1353165,67.47538 63.9757595,66.47068 62.558,66.47068 L55.491962,66.47068 C54.0745949,66.47068 53.6048861,65.66318 54.4489494,64.67684 L75.9868861,39.48488 C76.830557,38.4982 78.211038,38.4982 79.0547089,39.48488 L100.592253,64.67684 C101.435139,65.66318 100.966215,66.47068 99.5496329,66.47068 L92.4828101,66.47068 C91.0662278,66.47068 89.9058861,67.47538 89.9058861,68.70346 L89.9058861,83.10722 C89.9058861,83.10722 90.0134051,84.83952 91.9102911,84.83952 L129.180532,84.83952 C143.462506,84.83952 155.04081,74.80748 155.04081,62.43284 C155.04081,53.93726 149.581278,46.54634 141.537759,42.74786 L141.537759,42.74786 L141.537759,42.74786 Z"></path>
            </g>
        </g>
    </g>
</svg>